<svg id="Layer_1" data-name="Layer 1" xmlns="http://www.w3.org/2000/svg" viewBox="0 0 563.7 197.63">
  <defs>
    <style>
      .cls-1 {
        fill: #fff;
      }

      .cls-2 {
        fill: #fbb03b;
        stroke: #faaf40;
        stroke-miterlimit: 10;
      }
    </style>
  </defs>
  <title>dropper_logo_white</title>
  <g>
    <g>
      <path class="cls-1" d="M2577.67,2057h35.89v9.15h-23.85v20.59h20.78v9.15h-20.78v29h-12V2057Z" transform="translate(-2521.15 -1988.15)"/>
      <path class="cls-1" d="M2619.93,2057h12v54.23q0,2.77,1.24,3.76t4.66,1.29v9.15a49,49,0,0,1-7.5-.52,14.48,14.48,0,0,1-5.67-2,9.58,9.58,0,0,1-3.54-4.15,16.36,16.36,0,0,1-1.24-6.86V2057Z" transform="translate(-2521.15 -1988.15)"/>
      <path class="cls-1" d="M2641.53,2092.74a29,29,0,0,1,.47-5.43,11.48,11.48,0,0,1,1.77-4.38,14.89,14.89,0,0,1,6.14-5.05,24.94,24.94,0,0,1,19.12,0,14.9,14.9,0,0,1,6.14,5.05,11.54,11.54,0,0,1,1.77,4.38,29.21,29.21,0,0,1,.47,5.43v15.92a29.18,29.18,0,0,1-.47,5.43,11.53,11.53,0,0,1-1.77,4.38,14.9,14.9,0,0,1-6.14,5.05,24.94,24.94,0,0,1-19.12,0,14.89,14.89,0,0,1-6.14-5.05,11.47,11.47,0,0,1-1.77-4.38,29,29,0,0,1-.47-5.43v-15.92Zm12,17.44a5.19,5.19,0,0,0,1.59,4.15,7.41,7.41,0,0,0,8.62,0,5.19,5.19,0,0,0,1.59-4.15v-19a5.19,5.19,0,0,0-1.59-4.15,7.41,7.41,0,0,0-8.62,0,5.19,5.19,0,0,0-1.59,4.15v19Z" transform="translate(-2521.15 -1988.15)"/>
      <path class="cls-1" d="M2686.27,2076.54h12v5.15a37.51,37.51,0,0,1,7.2-4.19,22.12,22.12,0,0,1,8.74-1.52v10.29a11.82,11.82,0,0,0-3.66-.57,17.54,17.54,0,0,0-4.07.52,12.18,12.18,0,0,0-4,1.76,9.94,9.94,0,0,0-3,3.24,9.61,9.61,0,0,0-1.18,5v28.69h-12v-48.32Z" transform="translate(-2521.15 -1988.15)"/>
      <path class="cls-1" d="M2719.09,2057h12v9.72h-12V2057Zm0,19.54h12v48.32h-12v-48.32Z" transform="translate(-2521.15 -1988.15)"/>
      <path class="cls-1" d="M2765,2120.48q-1.18,1.05-2.24,2a12.21,12.21,0,0,1-2.36,1.57,12.62,12.62,0,0,1-3,1,17.58,17.58,0,0,1-3.9.38q-7.44,0-10.51-4.58a11.19,11.19,0,0,1-1.53-4,34.21,34.21,0,0,1-.47-6.39v-18.4a60.22,60.22,0,0,1,.35-7.72,8.37,8.37,0,0,1,1.53-4,12,12,0,0,1,4-3.14,15.15,15.15,0,0,1,6.79-1.24,14.85,14.85,0,0,1,6.32,1.29,13.79,13.79,0,0,1,4.78,3.67H2765V2057h12v67.86h-12v-4.38Zm-11.92-11.34a7.52,7.52,0,0,0,1.42,4.77,5.34,5.34,0,0,0,4.49,1.81,5.7,5.7,0,0,0,6-6v-18.78a4.76,4.76,0,0,0-1.71-3.76,6.37,6.37,0,0,0-4.31-1.48q-3.43,0-4.66,1.72a6.65,6.65,0,0,0-1.24,4v17.73Z" transform="translate(-2521.15 -1988.15)"/>
      <path class="cls-1" d="M2809.75,2119.9h-0.24a20.34,20.34,0,0,1-4.78,4.1,13.42,13.42,0,0,1-6.79,1.43,19.2,19.2,0,0,1-4.37-.52,11.82,11.82,0,0,1-4.19-1.91,10.14,10.14,0,0,1-3.19-3.91,14.85,14.85,0,0,1-1.24-6.53,28.07,28.07,0,0,1,.83-7.2,10.65,10.65,0,0,1,3-5.15,13.62,13.62,0,0,1,5.84-3,36.16,36.16,0,0,1,9.33-1q1.3,0,2.6.1t3.19,0.19v-5.05a6.35,6.35,0,0,0-1.3-4.1q-1.3-1.62-4.72-1.62a7.87,7.87,0,0,0-4.31,1.24,5.76,5.76,0,0,0-2.54,3.62H2785.2a14.55,14.55,0,0,1,5.43-10.48,17.88,17.88,0,0,1,5.67-3,23.58,23.58,0,0,1,7.44-1.1,25.49,25.49,0,0,1,7.08,1,16.58,16.58,0,0,1,5.73,2.86,13.77,13.77,0,0,1,3.84,4.77,14.86,14.86,0,0,1,1.42,6.67v33.65h-12v-5Zm0-15.82a24.38,24.38,0,0,0-3.31-.29,14,14,0,0,0-6.67,1.48q-2.77,1.48-2.77,5.38a6.18,6.18,0,0,0,1.65,4.48,6.09,6.09,0,0,0,4.6,1.72,6.68,6.68,0,0,0,4.78-1.62,6,6,0,0,0,1.71-4.58v-6.58Z" transform="translate(-2521.15 -1988.15)"/>
    </g>
    <g>
      <polygon class="cls-2" points="561.66 77.8 531.2 95.73 526.61 73.8 561.66 77.8"/>
      <polygon class="cls-2" points="562.15 119.79 527.1 124.23 531.54 102.27 562.15 119.79"/>
      <polygon class="cls-2" points="515.02 13.94 508.2 48.61 488.76 37.48 515.02 13.94"/>
      <polygon class="cls-2" points="473.7 1.57 483.05 35.65 460.68 34.35 473.7 1.57"/>
      <polygon class="cls-2" points="545.83 42.1 525.37 70.91 512.21 52.78 545.83 42.1"/>
      <polygon class="cls-2" points="431.39 8.56 453.82 35.87 432.87 43.8 431.39 8.56"/>
      <polygon class="cls-2" points="395.82 32.84 427.8 47.87 412.28 64.03 395.82 32.84"/>
    </g>
    <path class="cls-1" d="M2542.79,2070.17L2521.15,2083v-18.5l21.64-12.84h21.64v121.94h-21.64V2070.17Z" transform="translate(-2521.15 -1988.15)"/>
    <g>
      <path class="cls-1" d="M2577.59,2174.12v-38.88h18.56a12.64,12.64,0,0,1,5.23,1.07,13.72,13.72,0,0,1,4.11,2.79,12.65,12.65,0,0,1,2.69,3.92,11,11,0,0,1,1,4.43,11.79,11.79,0,0,1-.71,4.08,12.13,12.13,0,0,1-2,3.5,11.47,11.47,0,0,1-3.06,2.63,11.66,11.66,0,0,1-4,1.45l10.77,15h-4.89l-10.33-14.35h-13v14.35h-4.33Zm4.33-17.74h14.36a8.11,8.11,0,0,0,6.19-2.74,9.44,9.44,0,0,0,1.73-2.85,9.13,9.13,0,0,0,.62-3.34,8.28,8.28,0,0,0-.71-3.37,9,9,0,0,0-4.76-4.74,8.55,8.55,0,0,0-3.43-.71h-14v17.74Z" transform="translate(-2521.15 -1988.15)"/>
      <path class="cls-1" d="M2650.61,2170.73v3.39h-29.51v-38.88h29v3.39h-24.63v14h21.47v3.23h-21.47v14.84h25.18Z" transform="translate(-2521.15 -1988.15)"/>
      <path class="cls-1" d="M2661.87,2174.12v-38.88h14.91a25.22,25.22,0,0,1,9.19,1.53,18.81,18.81,0,0,1,6.56,4.16,17.16,17.16,0,0,1,4,6.16,21.19,21.19,0,0,1,1.33,7.53,20.8,20.8,0,0,1-1.48,8,17.19,17.19,0,0,1-4.24,6.13,19.25,19.25,0,0,1-6.62,3.94,25.48,25.48,0,0,1-8.69,1.4h-14.91Zm31.62-19.49a18,18,0,0,0-1.11-6.43,14.24,14.24,0,0,0-3.25-5.06,14.64,14.64,0,0,0-5.23-3.31,19.92,19.92,0,0,0-7.12-1.18H2666.2v32.09h10.58a19.55,19.55,0,0,0,7.21-1.23,14.68,14.68,0,0,0,5.23-3.39,14.35,14.35,0,0,0,3.19-5.09A18.26,18.26,0,0,0,2693.48,2154.63Z" transform="translate(-2521.15 -1988.15)"/>
      <path class="cls-1" d="M2707.72,2160.92v-3.45h18.07v3.45h-18.07Z" transform="translate(-2521.15 -1988.15)"/>
      <path class="cls-1" d="M2738.41,2174.12v-38.88h4.33v38.88h-4.33Z" transform="translate(-2521.15 -1988.15)"/>
      <path class="cls-1" d="M2775.72,2174.12v-38.88h14.91a25.22,25.22,0,0,1,9.19,1.53,18.81,18.81,0,0,1,6.56,4.16,17.16,17.16,0,0,1,4,6.16,21.19,21.19,0,0,1,1.33,7.53,20.8,20.8,0,0,1-1.48,8,17.19,17.19,0,0,1-4.24,6.13,19.25,19.25,0,0,1-6.62,3.94,25.48,25.48,0,0,1-8.69,1.4h-14.91Zm31.62-19.49a18,18,0,0,0-1.11-6.43,14.24,14.24,0,0,0-3.25-5.06,14.64,14.64,0,0,0-5.23-3.31,19.92,19.92,0,0,0-7.12-1.18H2780v32.09h10.58a19.55,19.55,0,0,0,7.21-1.23,14.68,14.68,0,0,0,5.23-3.39,14.35,14.35,0,0,0,3.19-5.09A18.26,18.26,0,0,0,2807.33,2154.63Z" transform="translate(-2521.15 -1988.15)"/>
      <path class="cls-1" d="M2838.27,2148.88a14.46,14.46,0,0,0-7.43,2.08,10.68,10.68,0,0,0-4.46,5.42v17.74h-4.21v-28.53h4v6.84a13.5,13.5,0,0,1,4.83-5.15,12.21,12.21,0,0,1,6.5-1.86,4.83,4.83,0,0,1,.8.05v3.39Z" transform="translate(-2521.15 -1988.15)"/>
      <path class="cls-1" d="M2859.12,2174.67a17,17,0,0,1-6.43-1.18,15.89,15.89,0,0,1-5-3.2,14.36,14.36,0,0,1-3.31-4.71,13.89,13.89,0,0,1-1.18-5.64,13.73,13.73,0,0,1,1.21-5.7,14.81,14.81,0,0,1,3.34-4.71,16.33,16.33,0,0,1,5-3.23,16.5,16.5,0,0,1,6.37-1.21,16.74,16.74,0,0,1,6.4,1.21,16.26,16.26,0,0,1,5.07,3.23,14.81,14.81,0,0,1,3.34,4.71,13.74,13.74,0,0,1,1.21,5.7,13.91,13.91,0,0,1-1.18,5.64,14.38,14.38,0,0,1-3.31,4.71,15.84,15.84,0,0,1-5.07,3.2A17.23,17.23,0,0,1,2859.12,2174.67ZM2847.43,2160a10.71,10.71,0,0,0,.93,4.46,12,12,0,0,0,2.51,3.61,11.33,11.33,0,0,0,3.71,2.44,11.84,11.84,0,0,0,4.55.88,11.54,11.54,0,0,0,4.55-.9,12.09,12.09,0,0,0,3.74-2.46,11.62,11.62,0,0,0,2.54-3.64,11.26,11.26,0,0,0,0-9,11.54,11.54,0,0,0-2.54-3.67,12.11,12.11,0,0,0-3.74-2.46,11.54,11.54,0,0,0-4.55-.9,11.32,11.32,0,0,0-4.52.9,11.91,11.91,0,0,0-6.25,6.19A11.09,11.09,0,0,0,2847.43,2160Z" transform="translate(-2521.15 -1988.15)"/>
      <path class="cls-1" d="M2901.75,2174.67a14,14,0,0,1-7.21-1.83,15.56,15.56,0,0,1-5-4.63v17.58h-4.21v-40.19h3.77v5.53a15,15,0,0,1,5.14-4.35,14.46,14.46,0,0,1,6.87-1.67,15,15,0,0,1,6.13,1.23,15.68,15.68,0,0,1,4.83,3.29,15,15,0,0,1,3.19,4.74,14,14,0,0,1,1.14,5.53,15.48,15.48,0,0,1-1.05,5.69,14.15,14.15,0,0,1-7.64,7.91A14.58,14.58,0,0,1,2901.75,2174.67Zm-1.18-3.29a11.15,11.15,0,0,0,4.73-1,11.63,11.63,0,0,0,3.65-2.6,11.37,11.37,0,0,0,2.32-3.67,11.54,11.54,0,0,0,.8-4.24,10.65,10.65,0,0,0-.93-4.38,12,12,0,0,0-11.08-7.12,10.88,10.88,0,0,0-3.37.57,14.6,14.6,0,0,0-3.28,1.53,11.14,11.14,0,0,0-2.6,2.25,5.72,5.72,0,0,0-1.33,2.71v8.76a12.82,12.82,0,0,0,1.89,2.85,12.67,12.67,0,0,0,2.6,2.27,13,13,0,0,0,3.13,1.51A11,11,0,0,0,2900.58,2171.38Z" transform="translate(-2521.15 -1988.15)"/>
      <path class="cls-1" d="M2943,2174.67a14,14,0,0,1-7.21-1.83,15.56,15.56,0,0,1-5-4.63v17.58h-4.21v-40.19h3.77v5.53a15,15,0,0,1,5.14-4.35,14.46,14.46,0,0,1,6.87-1.67,15,15,0,0,1,6.13,1.23,15.68,15.68,0,0,1,4.83,3.29,15,15,0,0,1,3.19,4.74,14,14,0,0,1,1.14,5.53,15.48,15.48,0,0,1-1.05,5.69,14.15,14.15,0,0,1-7.64,7.91A14.58,14.58,0,0,1,2943,2174.67Zm-1.18-3.29a11.15,11.15,0,0,0,4.73-1,11.63,11.63,0,0,0,3.65-2.6,11.37,11.37,0,0,0,2.32-3.67,11.54,11.54,0,0,0,.8-4.24,10.65,10.65,0,0,0-.93-4.38,12,12,0,0,0-11.08-7.12,10.88,10.88,0,0,0-3.37.57,14.6,14.6,0,0,0-3.28,1.53,11.14,11.14,0,0,0-2.6,2.25,5.72,5.72,0,0,0-1.33,2.71v8.76a12.82,12.82,0,0,0,1.89,2.85,12.67,12.67,0,0,0,2.6,2.27,13,13,0,0,0,3.13,1.51A11,11,0,0,0,2941.85,2171.38Z" transform="translate(-2521.15 -1988.15)"/>
      <path class="cls-1" d="M2981.76,2174.67a17.23,17.23,0,0,1-6.47-1.18,15.93,15.93,0,0,1-5.1-3.23,14.86,14.86,0,0,1-3.37-4.74,13.85,13.85,0,0,1-1.21-5.75,13.54,13.54,0,0,1,1.21-5.67,14.57,14.57,0,0,1,3.34-4.65,16,16,0,0,1,5.1-3.18,18.25,18.25,0,0,1,12.9,0,15.5,15.5,0,0,1,5,3.2,14.82,14.82,0,0,1,3.28,4.65,13.53,13.53,0,0,1,1.18,5.58v0.88a2,2,0,0,1-.06.6H2970a10.9,10.9,0,0,0,1.21,4.24,11.72,11.72,0,0,0,2.63,3.37,11.9,11.9,0,0,0,3.68,2.22,12.26,12.26,0,0,0,4.42.79,12.86,12.86,0,0,0,3.09-.38,13.48,13.48,0,0,0,2.85-1,10.47,10.47,0,0,0,2.35-1.62,6.94,6.94,0,0,0,1.61-2.11l3.65,0.88a9.46,9.46,0,0,1-2.1,2.88,14.48,14.48,0,0,1-3.16,2.25,16.56,16.56,0,0,1-4,1.48A19.28,19.28,0,0,1,2981.76,2174.67Zm11.88-16.32a10.49,10.49,0,0,0-1.21-4.19,11.54,11.54,0,0,0-2.6-3.26,11.75,11.75,0,0,0-3.65-2.14,12.66,12.66,0,0,0-4.42-.77,12.91,12.91,0,0,0-4.46.77,11.66,11.66,0,0,0-3.68,2.14,10.57,10.57,0,0,0-2.54,3.29,11.29,11.29,0,0,0-1.14,4.16h23.7Z" transform="translate(-2521.15 -1988.15)"/>
      <path class="cls-1" d="M3023.34,2148.88a14.46,14.46,0,0,0-7.43,2.08,10.68,10.68,0,0,0-4.46,5.42v17.74h-4.21v-28.53h4v6.84a13.5,13.5,0,0,1,4.83-5.15,12.21,12.21,0,0,1,6.5-1.86,4.83,4.83,0,0,1,.8.05v3.39Z" transform="translate(-2521.15 -1988.15)"/>
    </g>
    <g>
      <path class="cls-1" d="M2857.61,2057.93h9.9l18.51,66.93h-11.88l-3.49-14.38h-16.18l-3.49,14.38H2839.1Zm5,19.27h-0.23l-5.82,24.25h11.88Z" transform="translate(-2521.15 -1988.15)"/>
      <path class="cls-1" d="M2891.84,2057.93h17.58q10.13,0,15.48,4.56t5.36,12.74v31.3q0,9.4-5.65,13.87t-16.24,4.46h-16.53v-66.93Zm11.88,57.9h5.47q5,0,7.1-2t2.1-6.34v-32.24a8.73,8.73,0,0,0-2-6.11q-2-2.16-7.22-2.16h-5.47v48.88Z" transform="translate(-2521.15 -1988.15)"/>
      <path class="cls-1" d="M2941.44,2057.93h19.09q21,0,21,19.65a20.69,20.69,0,0,1-2.27,10q-2.27,4.19-8,6.72l12.81,30.55h-12.57l-11.06-28.58h-7.1v28.58h-11.87v-66.93Zm11.88,29.89h6.75a14.5,14.5,0,0,0,5-.71,6.2,6.2,0,0,0,2.85-2,7.57,7.57,0,0,0,1.34-3.24,28.76,28.76,0,0,0,0-8.93,7.16,7.16,0,0,0-1.46-3.29,6.51,6.51,0,0,0-3.09-2,17.09,17.09,0,0,0-5.24-.66h-6.17v20.87Z" transform="translate(-2521.15 -1988.15)"/>
      <path class="cls-1" d="M3028.75,2109.91a12.75,12.75,0,0,1-1.46,5.92,15.73,15.73,0,0,1-4,4.94,20.47,20.47,0,0,1-6,3.38,21.18,21.18,0,0,1-7.39,1.27,32.59,32.59,0,0,1-6.87-.75,18.38,18.38,0,0,1-6.29-2.58,14.77,14.77,0,0,1-4.6-4.84,14.59,14.59,0,0,1-1.8-7.61v-36.85a13.57,13.57,0,0,1,1.4-6.11,14.52,14.52,0,0,1,4-4.89,19.28,19.28,0,0,1,6.11-3.24,24.94,24.94,0,0,1,7.86-1.17,23.63,23.63,0,0,1,7.57,1.17,18.88,18.88,0,0,1,6.05,3.29,15.26,15.26,0,0,1,4,5.08,14.41,14.41,0,0,1,1.46,6.44v3.76h-11.87v-3.2a6.83,6.83,0,0,0-2-4.89,7.07,7.07,0,0,0-5.36-2.07q-4.43,0-5.88,2.21a10,10,0,0,0-1.46,5.59V2109a7.6,7.6,0,0,0,1.57,4.89q1.57,2,5.65,2a10.5,10.5,0,0,0,2.5-.33,7.5,7.5,0,0,0,2.45-1.08,5.64,5.64,0,0,0,1.8-2.07,7,7,0,0,0,.7-3.29v-3.29h11.88v4.14Z" transform="translate(-2521.15 -1988.15)"/>
    </g>
  </g>
</svg>
