<?xml version="1.0" encoding="utf-8"?>
<!-- Generator: Adobe Illustrator 19.2.1, SVG Export Plug-In . SVG Version: 6.00 Build 0)  -->
<svg version="1.1" id="Layer_1" xmlns="http://www.w3.org/2000/svg" xmlns:xlink="http://www.w3.org/1999/xlink" x="0px" y="0px"
	 viewBox="0 0 800 395" style="enable-background:new 0 0 800 395;" xml:space="preserve">
<style type="text/css">
	.st0{fill-rule:evenodd;clip-rule:evenodd;fill:#F6B221;}
	.st1{fill:#7F3F97;}
	.st2{fill:#6C2085;}
	.st3{fill:none;stroke:#6C2085;stroke-width:2;stroke-miterlimit:10;}
	.st4{fill-rule:evenodd;clip-rule:evenodd;fill:#6C2085;}
	.st5{fill-rule:evenodd;clip-rule:evenodd;fill:#3C8D40;}
	.st6{fill-rule:evenodd;clip-rule:evenodd;fill:#E9AC0C;}
	.st7{fill-rule:evenodd;clip-rule:evenodd;fill:#DD8B19;}
	.st8{fill-rule:evenodd;clip-rule:evenodd;fill:#54C637;}
	.st9{fill-rule:evenodd;clip-rule:evenodd;fill:#FDFDFD;}
	.st10{fill:#FAAF40;stroke:#FAAF40;stroke-miterlimit:10;}
	.st11{clip-path:url(#SVGID_2_);}
	.st12{fill:#F6B221;}
	.st13{clip-path:url(#SVGID_4_);}
	.st14{clip-path:url(#SVGID_6_);}
	.st15{clip-path:url(#SVGID_8_);}
	.st16{fill:#E9AC0C;}
	.st17{clip-path:url(#SVGID_10_);}
	.st18{clip-path:url(#SVGID_12_);}
	.st19{clip-path:url(#SVGID_14_);}
	.st20{fill:#FFFFFF;}
	.st21{fill:#FBB03B;stroke:#FAAF40;stroke-miterlimit:10;}
	.st22{fill:none;}
	.st23{fill:none;stroke:#29ABE2;stroke-width:4;stroke-miterlimit:10;}
	.st24{fill-rule:evenodd;clip-rule:evenodd;fill:#530577;}
	.st25{fill-rule:evenodd;clip-rule:evenodd;fill:#7F3F97;}
	.st26{fill:#C19EDB;}
	.st27{fill:#FEFEFE;}
	.st28{font-family:'DINCondensed-Bold';}
	.st29{font-size:95.3135px;}
	.st30{font-size:171.2627px;}
	.st31{font-family:'Raleway-Regular';}
	.st32{font-size:54.7568px;}
	.st33{letter-spacing:2.6;}
	.st34{font-size:94px;}
</style>
<text transform="matrix(1.2386 0 0 1 167.6133 227.0379)" class="st1 st28 st29">Florida</text>
<g>
	<polygon class="st21" points="678.4,168.1 648,186.1 643.4,164.1 	"/>
	<polygon class="st21" points="678.9,210.1 643.9,214.6 648.3,192.6 	"/>
	<polygon class="st21" points="631.8,104.3 625,138.9 605.5,127.8 	"/>
	<polygon class="st21" points="590.5,91.9 599.8,126 577.4,124.7 	"/>
	<polygon class="st21" points="662.6,132.4 642.1,161.2 629,143.1 	"/>
	<polygon class="st21" points="548.2,98.9 570.6,126.2 549.6,134.1 	"/>
	<polygon class="st21" points="512.6,123.2 544.6,138.2 529,154.4 	"/>
</g>
<text transform="matrix(1.2386 0 0 1 105.5199 275.7898)" class="st1 st28 st30">1</text>
<text transform="matrix(1.17 0 0 1 168.5706 276.2967)" class="st1 st31 st32 st33">RED-I Dropper</text>
<text transform="matrix(1.2386 0 0 1 434.4772 227.0375)" class="st1 st28 st34">ADRC</text>
</svg>
