<svg id="Layer_1" data-name="Layer 1" xmlns="http://www.w3.org/2000/svg" viewBox="0 0 630.11 226.8">
  <defs>
    <style>
      .cls-1 {
        fill: #fff;
      }

      .cls-2 {
        fill: #fbb03b;
        stroke: #faaf40;
        stroke-miterlimit: 10;
      }
    </style>
  </defs>
  <title>1Florida ADRC logo design</title>
  <g>
    <g>
      <path class="cls-1" d="M92.86,82.64h35.89v9.15H104.9v20.59h20.78v9.15H104.9v29h-12V82.64Z"/>
      <path class="cls-1" d="M135.12,82.64h12v54.23q0,2.77,1.24,3.76t4.66,1.29v9.15a49,49,0,0,1-7.5-.52,14.48,14.48,0,0,1-5.67-2,9.58,9.58,0,0,1-3.54-4.15,16.36,16.36,0,0,1-1.24-6.86V82.64Z"/>
      <path class="cls-1" d="M156.73,118.38a29,29,0,0,1,.47-5.43,11.48,11.48,0,0,1,1.77-4.38,14.89,14.89,0,0,1,6.14-5.05,24.94,24.94,0,0,1,19.12,0,14.9,14.9,0,0,1,6.14,5.05,11.54,11.54,0,0,1,1.77,4.38,29.21,29.21,0,0,1,.47,5.43V134.3a29.18,29.18,0,0,1-.47,5.43,11.53,11.53,0,0,1-1.77,4.38,14.9,14.9,0,0,1-6.14,5.05,24.94,24.94,0,0,1-19.12,0,14.89,14.89,0,0,1-6.14-5.05,11.47,11.47,0,0,1-1.77-4.38,29,29,0,0,1-.47-5.43V118.38Zm12,17.44a5.19,5.19,0,0,0,1.59,4.15,7.41,7.41,0,0,0,8.62,0,5.19,5.19,0,0,0,1.59-4.15v-19a5.19,5.19,0,0,0-1.59-4.15,7.41,7.41,0,0,0-8.62,0,5.19,5.19,0,0,0-1.59,4.15v19Z"/>
      <path class="cls-1" d="M201.47,102.18h12v5.15a37.51,37.51,0,0,1,7.2-4.19,22.12,22.12,0,0,1,8.74-1.52V111.9a11.82,11.82,0,0,0-3.66-.57,17.54,17.54,0,0,0-4.07.52,12.18,12.18,0,0,0-4,1.76,9.94,9.94,0,0,0-3,3.24,9.61,9.61,0,0,0-1.18,5V150.5h-12V102.18Z"/>
      <path class="cls-1" d="M234.28,82.64h12v9.72h-12V82.64Zm0,19.54h12V150.5h-12V102.18Z"/>
      <path class="cls-1" d="M280.21,146.12q-1.18,1.05-2.24,2a12.21,12.21,0,0,1-2.36,1.57,12.62,12.62,0,0,1-3,1,17.58,17.58,0,0,1-3.9.38q-7.44,0-10.51-4.58a11.19,11.19,0,0,1-1.53-4,34.21,34.21,0,0,1-.47-6.39v-18.4a60.22,60.22,0,0,1,.35-7.72,8.37,8.37,0,0,1,1.53-4,12,12,0,0,1,4-3.14,15.15,15.15,0,0,1,6.79-1.24,14.85,14.85,0,0,1,6.32,1.29,13.79,13.79,0,0,1,4.78,3.67h0.24V82.64h12V150.5h-12v-4.38Zm-11.92-11.34a7.52,7.52,0,0,0,1.42,4.77,5.34,5.34,0,0,0,4.49,1.81,5.7,5.7,0,0,0,6-6V116.57a4.76,4.76,0,0,0-1.71-3.76,6.37,6.37,0,0,0-4.31-1.48q-3.43,0-4.66,1.72a6.65,6.65,0,0,0-1.24,4v17.73Z"/>
      <path class="cls-1" d="M324.95,145.55h-0.24a20.34,20.34,0,0,1-4.78,4.1,13.42,13.42,0,0,1-6.79,1.43,19.2,19.2,0,0,1-4.37-.52,11.82,11.82,0,0,1-4.19-1.91,10.14,10.14,0,0,1-3.19-3.91,14.85,14.85,0,0,1-1.24-6.53A28.07,28.07,0,0,1,301,131a10.65,10.65,0,0,1,3-5.15,13.62,13.62,0,0,1,5.84-3,36.16,36.16,0,0,1,9.33-1q1.3,0,2.6.1t3.19,0.19V117a6.35,6.35,0,0,0-1.3-4.1q-1.3-1.62-4.72-1.62a7.87,7.87,0,0,0-4.31,1.24,5.76,5.76,0,0,0-2.54,3.62H300.39a14.55,14.55,0,0,1,5.43-10.48,17.88,17.88,0,0,1,5.67-3,23.58,23.58,0,0,1,7.44-1.1,25.49,25.49,0,0,1,7.08,1,16.58,16.58,0,0,1,5.73,2.86,13.77,13.77,0,0,1,3.84,4.77,14.86,14.86,0,0,1,1.42,6.67V150.5h-12v-5Zm0-15.82a24.38,24.38,0,0,0-3.31-.29,14,14,0,0,0-6.67,1.48q-2.77,1.48-2.77,5.38a6.18,6.18,0,0,0,1.65,4.48,6.09,6.09,0,0,0,4.6,1.72,6.68,6.68,0,0,0,4.78-1.62,6,6,0,0,0,1.71-4.58v-6.58Z"/>
    </g>
    <g>
      <polygon class="cls-2" points="598 91.59 567.55 109.52 562.96 87.59 598 91.59"/>
      <polygon class="cls-2" points="598.5 133.58 563.44 138.03 567.88 116.07 598.5 133.58"/>
      <polygon class="cls-2" points="551.36 27.73 544.54 62.41 525.1 51.28 551.36 27.73"/>
      <polygon class="cls-2" points="510.04 15.37 519.39 49.45 497.02 48.15 510.04 15.37"/>
      <polygon class="cls-2" points="582.17 55.9 561.71 84.71 548.55 66.58 582.17 55.9"/>
      <polygon class="cls-2" points="467.73 22.36 490.17 49.66 469.22 57.6 467.73 22.36"/>
      <polygon class="cls-2" points="432.16 46.63 464.14 61.66 448.63 77.83 432.16 46.63"/>
    </g>
    <path class="cls-1" d="M58,95.81L36.34,108.66V90.16L58,77.32H79.62V199.26H58V95.81Z"/>
    <g>
      <path class="cls-1" d="M92.78,199.76V160.89h18.56a12.64,12.64,0,0,1,5.23,1.07,13.72,13.72,0,0,1,4.11,2.79,12.65,12.65,0,0,1,2.69,3.92,11,11,0,0,1,1,4.43,11.79,11.79,0,0,1-.71,4.08,12.13,12.13,0,0,1-2,3.5,11.47,11.47,0,0,1-3.06,2.63,11.66,11.66,0,0,1-4,1.45l10.77,15h-4.89l-10.33-14.35h-13v14.35H92.78ZM97.12,182h14.36a8.11,8.11,0,0,0,6.19-2.74,9.44,9.44,0,0,0,1.73-2.85,9.13,9.13,0,0,0,.62-3.34,8.28,8.28,0,0,0-.71-3.37,9,9,0,0,0-4.76-4.74,8.55,8.55,0,0,0-3.43-.71h-14V182Z"/>
      <path class="cls-1" d="M165.8,196.37v3.39H136.28V160.89h29v3.39H140.61v14h21.47v3.23H140.61v14.84H165.8Z"/>
      <path class="cls-1" d="M177.06,199.76V160.89H192a25.22,25.22,0,0,1,9.19,1.53,18.81,18.81,0,0,1,6.56,4.16,17.16,17.16,0,0,1,4,6.16,21.19,21.19,0,0,1,1.33,7.53,20.8,20.8,0,0,1-1.48,8,17.19,17.19,0,0,1-4.24,6.13,19.25,19.25,0,0,1-6.62,3.94,25.48,25.48,0,0,1-8.69,1.4H177.06Zm31.62-19.49a18,18,0,0,0-1.11-6.43,14.24,14.24,0,0,0-3.25-5.06,14.64,14.64,0,0,0-5.23-3.31,19.92,19.92,0,0,0-7.12-1.18H181.39v32.09H192a19.55,19.55,0,0,0,7.21-1.23,14.68,14.68,0,0,0,5.23-3.39,14.35,14.35,0,0,0,3.19-5.09A18.26,18.26,0,0,0,208.68,180.27Z"/>
      <path class="cls-1" d="M222.91,186.57v-3.45H241v3.45H222.91Z"/>
      <path class="cls-1" d="M253.6,199.76V160.89h4.33v38.88H253.6Z"/>
      <path class="cls-1" d="M290.91,199.76V160.89h14.91a25.22,25.22,0,0,1,9.19,1.53,18.81,18.81,0,0,1,6.56,4.16,17.16,17.16,0,0,1,4,6.16,21.19,21.19,0,0,1,1.33,7.53,20.8,20.8,0,0,1-1.48,8,17.19,17.19,0,0,1-4.24,6.13,19.25,19.25,0,0,1-6.62,3.94,25.48,25.48,0,0,1-8.69,1.4H290.91Zm31.62-19.49a18,18,0,0,0-1.11-6.43,14.24,14.24,0,0,0-3.25-5.06,14.64,14.64,0,0,0-5.23-3.31,19.92,19.92,0,0,0-7.12-1.18H295.24v32.09h10.58a19.55,19.55,0,0,0,7.21-1.23,14.68,14.68,0,0,0,5.23-3.39,14.35,14.35,0,0,0,3.19-5.09A18.26,18.26,0,0,0,322.53,180.27Z"/>
      <path class="cls-1" d="M353.46,174.52A14.46,14.46,0,0,0,346,176.6a10.68,10.68,0,0,0-4.46,5.42v17.74h-4.21V171.24h4v6.84a13.5,13.5,0,0,1,4.83-5.15,12.21,12.21,0,0,1,6.5-1.86,4.83,4.83,0,0,1,.8.05v3.39Z"/>
      <path class="cls-1" d="M374.32,200.31a17,17,0,0,1-6.43-1.18,15.89,15.89,0,0,1-5-3.2,14.36,14.36,0,0,1-3.31-4.71,13.89,13.89,0,0,1-1.18-5.64,13.73,13.73,0,0,1,1.21-5.7,14.81,14.81,0,0,1,3.34-4.71,16.33,16.33,0,0,1,5-3.23,16.5,16.5,0,0,1,6.37-1.21,16.74,16.74,0,0,1,6.4,1.21,16.26,16.26,0,0,1,5.07,3.23,14.81,14.81,0,0,1,3.34,4.71,13.74,13.74,0,0,1,1.21,5.7,13.91,13.91,0,0,1-1.18,5.64,14.38,14.38,0,0,1-3.31,4.71,15.84,15.84,0,0,1-5.07,3.2A17.23,17.23,0,0,1,374.32,200.31Zm-11.69-14.67a10.71,10.71,0,0,0,.93,4.46,12,12,0,0,0,2.51,3.61,11.33,11.33,0,0,0,3.71,2.44,11.84,11.84,0,0,0,4.55.88,11.54,11.54,0,0,0,4.55-.9,12.09,12.09,0,0,0,3.74-2.46,11.62,11.62,0,0,0,2.54-3.64,11.26,11.26,0,0,0,0-9,11.54,11.54,0,0,0-2.54-3.67,12.11,12.11,0,0,0-3.74-2.46,11.54,11.54,0,0,0-4.55-.9,11.32,11.32,0,0,0-4.52.9,11.91,11.91,0,0,0-6.25,6.19A11.09,11.09,0,0,0,362.62,185.64Z"/>
      <path class="cls-1" d="M416.95,200.31a14,14,0,0,1-7.21-1.83,15.56,15.56,0,0,1-5-4.63v17.58h-4.21V171.24h3.77v5.53a15,15,0,0,1,5.14-4.35,14.46,14.46,0,0,1,6.87-1.67,15,15,0,0,1,6.13,1.23,15.68,15.68,0,0,1,4.83,3.29A15,15,0,0,1,430.4,180a14,14,0,0,1,1.14,5.53,15.48,15.48,0,0,1-1.05,5.69,14.15,14.15,0,0,1-7.64,7.91A14.58,14.58,0,0,1,416.95,200.31ZM415.77,197a11.15,11.15,0,0,0,4.73-1,11.63,11.63,0,0,0,3.65-2.6,11.37,11.37,0,0,0,2.32-3.67,11.54,11.54,0,0,0,.8-4.24,10.65,10.65,0,0,0-.93-4.38A12,12,0,0,0,415.28,174a10.88,10.88,0,0,0-3.37.57,14.6,14.6,0,0,0-3.28,1.53,11.14,11.14,0,0,0-2.6,2.25,5.72,5.72,0,0,0-1.33,2.71v8.76a12.82,12.82,0,0,0,1.89,2.85,12.67,12.67,0,0,0,2.6,2.27,13,13,0,0,0,3.13,1.51A11,11,0,0,0,415.77,197Z"/>
      <path class="cls-1" d="M458.22,200.31a14,14,0,0,1-7.21-1.83,15.56,15.56,0,0,1-5-4.63v17.58h-4.21V171.24h3.77v5.53a15,15,0,0,1,5.14-4.35,14.46,14.46,0,0,1,6.87-1.67,15,15,0,0,1,6.13,1.23,15.68,15.68,0,0,1,4.83,3.29,15,15,0,0,1,3.19,4.74,14,14,0,0,1,1.14,5.53,15.48,15.48,0,0,1-1.05,5.69,14.15,14.15,0,0,1-7.64,7.91A14.58,14.58,0,0,1,458.22,200.31ZM457,197a11.15,11.15,0,0,0,4.73-1,11.63,11.63,0,0,0,3.65-2.6,11.37,11.37,0,0,0,2.32-3.67,11.54,11.54,0,0,0,.8-4.24,10.65,10.65,0,0,0-.93-4.38A12,12,0,0,0,456.55,174a10.88,10.88,0,0,0-3.37.57,14.6,14.6,0,0,0-3.28,1.53,11.14,11.14,0,0,0-2.6,2.25,5.72,5.72,0,0,0-1.33,2.71v8.76a12.82,12.82,0,0,0,1.89,2.85,12.67,12.67,0,0,0,2.6,2.27,13,13,0,0,0,3.13,1.51A11,11,0,0,0,457,197Z"/>
      <path class="cls-1" d="M496.95,200.31a17.23,17.23,0,0,1-6.47-1.18,15.93,15.93,0,0,1-5.1-3.23,14.86,14.86,0,0,1-3.37-4.74,13.85,13.85,0,0,1-1.21-5.75,13.54,13.54,0,0,1,1.21-5.67,14.57,14.57,0,0,1,3.34-4.65,16,16,0,0,1,5.1-3.18,18.25,18.25,0,0,1,12.9,0,15.5,15.5,0,0,1,5,3.2,14.82,14.82,0,0,1,3.28,4.65,13.53,13.53,0,0,1,1.18,5.58v0.88a2,2,0,0,1-.06.6h-27.6a10.9,10.9,0,0,0,1.21,4.24,11.72,11.72,0,0,0,2.63,3.37,11.9,11.9,0,0,0,3.68,2.22,12.26,12.26,0,0,0,4.42.79,12.86,12.86,0,0,0,3.09-.38,13.48,13.48,0,0,0,2.85-1,10.47,10.47,0,0,0,2.35-1.62,6.94,6.94,0,0,0,1.61-2.11l3.65,0.88a9.46,9.46,0,0,1-2.1,2.88,14.48,14.48,0,0,1-3.16,2.25,16.56,16.56,0,0,1-4,1.48A19.28,19.28,0,0,1,496.95,200.31ZM508.83,184a10.49,10.49,0,0,0-1.21-4.19,11.54,11.54,0,0,0-2.6-3.26,11.75,11.75,0,0,0-3.65-2.14,12.66,12.66,0,0,0-4.42-.77,12.91,12.91,0,0,0-4.46.77,11.66,11.66,0,0,0-3.68,2.14,10.57,10.57,0,0,0-2.54,3.29,11.29,11.29,0,0,0-1.14,4.16h23.7Z"/>
      <path class="cls-1" d="M538.53,174.52a14.46,14.46,0,0,0-7.43,2.08,10.68,10.68,0,0,0-4.46,5.42v17.74h-4.21V171.24h4v6.84a13.5,13.5,0,0,1,4.83-5.15,12.21,12.21,0,0,1,6.5-1.86,4.83,4.83,0,0,1,.8.05v3.39Z"/>
    </g>
    <g>
      <path class="cls-1" d="M372.8,83.58h9.9l18.51,66.93H389.33l-3.49-14.38H369.66l-3.49,14.38H354.29Zm5,19.27h-0.23l-5.82,24.25h11.88Z"/>
      <path class="cls-1" d="M407,83.58h17.58q10.13,0,15.48,4.56t5.36,12.74v31.3q0,9.4-5.65,13.87t-16.24,4.46H407V83.58Zm11.88,57.9h5.47q5,0,7.1-2t2.1-6.34V100.87a8.73,8.73,0,0,0-2-6.11q-2-2.16-7.22-2.16h-5.47v48.88Z"/>
      <path class="cls-1" d="M456.63,83.58h19.09q21,0,21,19.65a20.69,20.69,0,0,1-2.27,10q-2.27,4.19-8,6.72l12.81,30.55H486.66L475.6,121.93h-7.1V150.5H456.63V83.58Zm11.88,29.89h6.75a14.5,14.5,0,0,0,5-.71,6.2,6.2,0,0,0,2.85-2,7.57,7.57,0,0,0,1.34-3.24,28.76,28.76,0,0,0,0-8.93A7.16,7.16,0,0,0,483,95.28a6.51,6.51,0,0,0-3.09-2,17.09,17.09,0,0,0-5.24-.66H468.5v20.87Z"/>
      <path class="cls-1" d="M543.95,135.56a12.75,12.75,0,0,1-1.46,5.92,15.73,15.73,0,0,1-4,4.94,20.47,20.47,0,0,1-6,3.38,21.18,21.18,0,0,1-7.39,1.27,32.59,32.59,0,0,1-6.87-.75,18.38,18.38,0,0,1-6.29-2.58,14.77,14.77,0,0,1-4.6-4.84,14.59,14.59,0,0,1-1.8-7.61V98.43a13.57,13.57,0,0,1,1.4-6.11,14.52,14.52,0,0,1,4-4.89A19.28,19.28,0,0,1,517,84.19,24.94,24.94,0,0,1,524.85,83a23.63,23.63,0,0,1,7.57,1.17,18.88,18.88,0,0,1,6.05,3.29,15.26,15.26,0,0,1,4,5.08A14.41,14.41,0,0,1,543.95,99v3.76H532.07v-3.2a6.83,6.83,0,0,0-2-4.89,7.07,7.07,0,0,0-5.36-2.07q-4.43,0-5.88,2.21a10,10,0,0,0-1.46,5.59v34.22a7.6,7.6,0,0,0,1.57,4.89q1.57,2,5.65,2a10.5,10.5,0,0,0,2.5-.33,7.5,7.5,0,0,0,2.45-1.08,5.64,5.64,0,0,0,1.8-2.07,7,7,0,0,0,.7-3.29v-3.29h11.88v4.14Z"/>
    </g>
  </g>
</svg>
