<svg id="artwork" xmlns="http://www.w3.org/2000/svg" viewBox="0 0 223.08 174.25">
  <defs>
    <style>
      .cls-1 {
        fill: #b48bbf;
      }

      .cls-2 {
        fill: #662d91;
      }

      .cls-3 {
        fill: #fff;
      }
    </style>
  </defs>
  <title>dropper_style-guide</title>
  <g>
    <path class="cls-1" d="M81.34,112.28l13.12,11.22-9.76-9.76,48.57-48.57,15.21,15.2-7.6-9.31L151,62.76l36.81,45.06a77.91,77.91,0,1,0-61.11,60.6L72.8,122.27Z"/>
    <path class="cls-2" d="M187.85,107.83L151,62.76l-10.17,8.31,7.6,9.31-15.21-15.2L84.69,113.74l9.76,9.76L81.34,112.28l-8.54,10,53.94,46.16A78,78,0,0,0,187.85,107.83Z"/>
  </g>
  <g>
    <rect class="cls-2" x="74.71" y="76.22" width="72.02" height="44.91"/>
    <path class="cls-3" d="M152.59,116.93a7.35,7.35,0,0,1-7.33,7.33H77.82a7.35,7.35,0,0,1-7.33-7.33V67.08a7.35,7.35,0,0,1,7.33-7.33h67.44a7.35,7.35,0,0,1,7.33,7.33v49.85ZM146.73,78.8a1.51,1.51,0,0,0-1.47-1.47H77.82a1.51,1.51,0,0,0-1.47,1.47v38.12a1.51,1.51,0,0,0,1.47,1.47h67.44a1.51,1.51,0,0,0,1.47-1.47V78.8ZM88.08,87.6a1.51,1.51,0,0,1-1.47,1.47H83.68a1.51,1.51,0,0,1-1.47-1.47V84.67a1.51,1.51,0,0,1,1.47-1.47h2.93a1.51,1.51,0,0,1,1.47,1.47V87.6Zm0,11.73a1.51,1.51,0,0,1-1.47,1.47H83.68a1.51,1.51,0,0,1-1.47-1.47V96.4a1.51,1.51,0,0,1,1.47-1.47h2.93a1.51,1.51,0,0,1,1.47,1.47v2.93Zm0,11.73a1.51,1.51,0,0,1-1.47,1.47H83.68a1.51,1.51,0,0,1-1.47-1.47v-2.93a1.51,1.51,0,0,1,1.47-1.47h2.93a1.51,1.51,0,0,1,1.47,1.47v2.93ZM140.86,87.6a1.51,1.51,0,0,1-1.47,1.47h-44a1.51,1.51,0,0,1-1.47-1.47V84.67a1.51,1.51,0,0,1,1.47-1.47h44a1.51,1.51,0,0,1,1.47,1.47V87.6Zm0,11.73a1.51,1.51,0,0,1-1.47,1.47h-44a1.51,1.51,0,0,1-1.47-1.47V96.4a1.51,1.51,0,0,1,1.47-1.47h44a1.51,1.51,0,0,1,1.47,1.47v2.93Zm0,11.73a1.51,1.51,0,0,1-1.47,1.47h-44a1.51,1.51,0,0,1-1.47-1.47v-2.93a1.51,1.51,0,0,1,1.47-1.47h44a1.51,1.51,0,0,1,1.47,1.47v2.93Z"/>
  </g>
</svg>
