<svg id="artwork" xmlns="http://www.w3.org/2000/svg" viewBox="0 0 223.08 174.25">
  <defs>
    <style>
      .cls-1 {
        fill: #b48bbf;
      }

      .cls-2 {
        fill: #662d91;
      }

      .cls-3 {
        fill: #fff;
      }
    </style>
  </defs>
  <title>dropper_style-guide</title>
  <path class="cls-1" d="M92.27,95.9L114.39,118l5.49-5.49L105.72,98.38l24.7-24.7,47.46,47.46A77.93,77.93,0,1,0,107.76,165a78.54,78.54,0,0,0,9.49-.6L70.48,117.69Z"/>
  <path class="cls-2" d="M177.88,121.13L130.42,73.67l-24.7,24.7,14.16,14.16L114.39,118,92.27,95.9,70.48,117.69l46.76,46.76A78,78,0,0,0,177.88,121.13Z"/>
  <path class="cls-3" d="M145.88,115.21a4.4,4.4,0,0,1-4.4,4.4H74a4.4,4.4,0,0,1-4.4-4.4V100.55a4.4,4.4,0,0,1,4.4-4.4H95.34l6.19,6.23a8.85,8.85,0,0,0,12.46,0l6.23-6.23h21.26a4.4,4.4,0,0,1,4.4,4.4v14.66ZM130.35,77.68L109.82,98.21a2.88,2.88,0,0,1-4.12,0L85.17,77.68a2.88,2.88,0,0,1-.64-3.21,3,3,0,0,1,2.7-1.79H99V52.16a3,3,0,0,1,2.93-2.93h11.73a3,3,0,0,1,2.93,2.93V72.69h11.73a3,3,0,0,1,2.7,1.79A2.88,2.88,0,0,1,130.35,77.68Zm-5,30.19a2.93,2.93,0,1,0,2.93,2.93A3,3,0,0,0,125.35,107.88Zm11.73,0a2.93,2.93,0,1,0,2.93,2.93A3,3,0,0,0,137.08,107.88Z"/>
</svg>
