<svg id="artwork" xmlns="http://www.w3.org/2000/svg" viewBox="0 0 223.08 174.25">
  <defs>
    <style>
      .cls-1 {
        fill: #fff;
      }

      .cls-2 {
        fill: #b48bbf;
      }

      .cls-3 {
        fill: #662d91;
      }
    </style>
  </defs>
  <title>upload</title>
  <path class="cls-1" d="M143.89,124.54H94a20.51,20.51,0,0,1-8.71-39.08c0-.69-0.09-1.33-0.09-2a23.46,23.46,0,0,1,45.18-8.89A11.59,11.59,0,0,1,138,71.75a11.75,11.75,0,0,1,11.73,11.73,11.49,11.49,0,0,1-1.88,6.32A17.59,17.59,0,0,1,143.89,124.54ZM131.75,92.69L115.62,76.57a1.45,1.45,0,0,0-1.05-.41,1.53,1.53,0,0,0-1.05.41L97.43,92.65a1.69,1.69,0,0,0-.46,1.1,1.45,1.45,0,0,0,1.47,1.47H108.7v16.13a1.51,1.51,0,0,0,1.47,1.47H119a1.51,1.51,0,0,0,1.47-1.47V95.21h10.26a1.48,1.48,0,0,0,1.47-1.47A1.53,1.53,0,0,0,131.75,92.69Z"/>
  <g>
    <path class="cls-2" d="M136.54,70.08l48.62,48.62A77.91,77.91,0,1,0,129.27,166L84.93,121.69Z"/>
    <path class="cls-3" d="M185.16,118.7L136.54,70.08,84.93,121.69,129.27,166A78,78,0,0,0,185.16,118.7Z"/>
  </g>
  <ellipse class="cls-3" cx="110.33" cy="93.21" rx="22.71" ry="23.74"/>
  <path class="cls-1" d="M137.42,122.13H87.23a20.65,20.65,0,0,1-8.77-39.36c0-.69-0.09-1.34-0.09-2a23.63,23.63,0,0,1,45.49-9A11.67,11.67,0,0,1,131.52,69a11.83,11.83,0,0,1,11.81,11.81,11.57,11.57,0,0,1-1.89,6.37A17.72,17.72,0,0,1,137.42,122.13ZM125.2,90.06L109,73.82a1.46,1.46,0,0,0-1.06-.41,1.54,1.54,0,0,0-1.06.41L90.64,90a1.71,1.71,0,0,0-.46,1.11,1.46,1.46,0,0,0,1.48,1.48H102v16.24a1.52,1.52,0,0,0,1.48,1.48h8.86a1.52,1.52,0,0,0,1.48-1.48V92.6h10.33a1.49,1.49,0,0,0,1.48-1.48A1.54,1.54,0,0,0,125.2,90.06Z"/>
</svg>
